<svg xmlns="http://www.w3.org/2000/svg" width="500" height="300" viewBox="0 0 500 300">
  <metadata><?xpacket begin="﻿" id="W5M0MpCehiHzreSzNTczkc9d"?>
<x:xmpmeta xmlns:x="adobe:ns:meta/" x:xmptk="Adobe XMP Core 5.6-c138 79.159824, 2016/09/14-01:09:01        ">
   <rdf:RDF xmlns:rdf="http://www.w3.org/1999/02/22-rdf-syntax-ns#">
      <rdf:Description rdf:about=""/>
   </rdf:RDF>
</x:xmpmeta>
                                                                                                    
                                                                                                    
                                                                                                    
                                                                                                    
                                                                                                    
                                                                                                    
                                                                                                    
                                                                                                    
                                                                                                    
                                                                                                    
                                                                                                    
                                                                                                    
                                                                                                    
                                                                                                    
                                                                                                    
                                                                                                    
                                                                                                    
                                                                                                    
                                                                                                    
                                                                                                    
                           
<?xpacket end="w"?></metadata>
<defs>
    <style>
      .cls-1 {
        fill: #373737;
        fill-rule: evenodd;
      }
    </style>
  </defs>
  <path id="apt_1203" data-name="apt 1203" class="cls-1" d="M23.981,96.328A441.475,441.475,0,0,0,19.293,155.8q0,5.471.391,10.84,0,8.4-3.027,49.609,0,4.3,3.418,4.3,1.758-1.074,1.758-1.758a4.771,4.771,0,0,0-.879-2.539l2.637-36.23V164.883q0-2.345,21.094-4.3l3.027,0.391q3.026,22.851,3.906,25.878,3.124,28.029,4.688,31.055,2.147,0,2.637-1.269a153.6,153.6,0,0,0-3.418-29.786q-5.177-52.243-16.016-85.839Q35.6,89.787,30.035,87.246H29.645q-3.809,0-5.664,9.082h0Zm10.352,3.027Q47.319,143.887,47.32,155.8v0.488a88.587,88.587,0,0,0-23.731,3.418v-1.269q0-9.472.391-9.473,0-34.667,5.664-56.543Q31.5,93.2,34.332,99.356h0ZM92.828,85v1.172a0.69,0.69,0,0,0,.781.781l-1.953,71.094q0,2.149.781,12.5a1.663,1.663,0,0,0-1.562,1.562,2.284,2.284,0,0,0,1.563,1.953q0,1.857.391,8.985,0,1.954-.391,5.859l1.172,16.406a0.346,0.346,0,0,0-.391.391q0.487,6.35,1.172,10.156a0.346,0.346,0,0,0-.391.391v2.734q0.975,1.564,1.563,1.563h0.781q1.172-.487,2.344-3.516v-1.172q0-2.929-1.172-3.125,0-3.318-1.172-25.39,0-.487.391-3.906a77.838,77.838,0,0,1-.391-8.594v-0.391q0-.879,4.687-1.172a26.1,26.1,0,0,0,11.328-10.547q8.593-29.1,8.594-53.515a41.423,41.423,0,0,0-1.562-8.985q-6.74-16.795-25-16.8-1.563.977-1.562,1.563h0Zm12.5,4.3q11.72,8.2,11.719,18.359,0,2.248-.391,9.375-4.2,43.75-10.937,48.047-4.494,4.688-8.985,4.688l-0.781-.391q0-3.125-.391-11.328l1.953-70.7a52.748,52.748,0,0,1,7.812,1.953h0Zm64.258,4.785H153.57q-3.027,0-10.547.684a26.08,26.08,0,0,1-3.125-.684q-1.563.783-1.562,1.367a4.31,4.31,0,0,0,1.172,3.027l12.5-1.074h1.172l0.781,0.391q0.78,10.158.781,22.559,3.516,75.976,3.516,84.375-0.391,3.027-.391,3.711a3.723,3.723,0,0,0,1.563,1.367h1.562q0.587,0,1.172-1.367l-0.391-2.344a1.9,1.9,0,0,1,.391-0.977,2.417,2.417,0,0,0-.391-1.074q0-25.584-3.515-84.668,0-.292.39-2.734L157.867,98.77q0.587-1.366,1.172-1.367h10.938q10.935,0,10.937-1.66V94.766L179.742,93.4a77.429,77.429,0,0,1-10.156.684h0Zm83.2-.879q0.975,1.563,1.563,1.563h0.39l1.953-.391a22.7,22.7,0,0,1,9.375-10.547l0.391,1.563q5.567,11.426,9.766,119.921v9.376l-0.391,4.687a1.671,1.671,0,0,1,1.172,1.172,3.267,3.267,0,0,0,3.125-1.953v-12.5q0-19.531-3.125-60.156-2.833-66.406-10.938-66.407H264.9q-11.036,8.4-12.109,13.672h0Zm67.969-5.859q-7.521,2.637-12.5,12.5v1.562a2.682,2.682,0,0,0,2.734,1.563l0.781-.391a17.543,17.543,0,0,1,3.516-6.25q0-4.1,18.359-8.2a19.684,19.684,0,0,0,3.125.391q10.937,4.2,10.938,12.5,0,6.934-3.906,19.14-9.083,18.165-18.75,62.11-7.424,33.692-7.422,35.546v1.172l1.172,1.563q20.214-3.516,26.172-3.516h1.953a1.669,1.669,0,0,0,1.172-1.172v-1.171q-0.978-1.561-1.563-1.563h-1.562q-3.907,0-23.047,2.734h-0.391q3.9-15.429,5.078-22.265a540.821,540.821,0,0,1,14.063-55.469q10.935-24.024,10.937-37.5l-0.39-2.734q-5.274-13.671-17.579-13.672a78.16,78.16,0,0,0-12.89,3.125h0Zm64.258,5.664q-9.375,18.263-9.375,29.785,0,67.872,12.109,84.18,7.713,8.887,12.891,8.886h0.781l3.906-.39q12.5-5.762,12.5-23.633,0-11.913.391-20.9-0.879-32.128-1.953-37.208,0-19.335-5.86-32.226-7.91-10.936-16.015-10.938a38.465,38.465,0,0,0-9.375,2.441h0Zm0,8.887q0-4.2,8.984-7.813c0.781,0,1.172.131,1.172,0.391q6.445,0,12.89,10.937,6.249,20.313,6.25,66.211-0.39,11.232-.39,21.191V193.2q-2.249,19.141-12.11,19.141h-1.171q-7.911-2.344-13.672-14.16-7.424-26.757-7.422-69.727v-5.371q0-7.812,5.469-21.191h0Zm60.839-18.164V84.9l1.172,1.563q4.882-.389,5.078-0.391a42.382,42.382,0,0,1,7.032.781q11.718,4.493,11.718,11.328,0,0.879-.781,7.421-3.222,19.533-12.5,31.25v1.172q0.195,0.783,1.953,1.563a3,3,0,0,0,1.172-.391,13.755,13.755,0,0,1,10.156,4.688q8.593,14.063,8.594,25.781v0.391q0,15.332-4.3,26.171,0,4.592-13.281,16.016-9.375,2.442-9.375,3.906v0.782q0.975,1.563,1.563,1.562h0.39a3.092,3.092,0,0,0,1.563-.391,19.805,19.805,0,0,0,11.718-5.859q15.624-10.936,15.625-42.578a45.91,45.91,0,0,0-2.734-14.453q-6.934-19.53-16.8-19.531A7.885,7.885,0,0,1,465,132.168q6.933-8.2,9.766-33.984-0.294-3.319-.782-3.906Q468.8,82.169,449.762,82.168l-0.782.391a0.346,0.346,0,0,0-.39-0.391h-1.172q-1.563.977-1.563,1.563h0Z"/>
</svg>
